0
SECTION
2
HEADER
9
$INSUNITS
70
4
9
$ACADVER
1
AC1014
9
$HANDSEED
5
FFFF
0
ENDSEC
0
SECTION
2
TABLES
0
TABLE
2
VPORT
5
8
100
AcDbSymbolTable
0
ENDTAB
0
TABLE
2
LTYPE
5
5
100
AcDbSymbolTable
0
LTYPE
5
14
100
AcDbSymbolTableRecord
100
AcDbLinetypeTableRecord
2
BYBLOCK
70
0
0
LTYPE
5
15
100
AcDbSymbolTableRecord
100
AcDbLinetypeTableRecord
2
BYLAYER
70
0
0
ENDTAB
0
TABLE
2
LAYER
5
2
100
AcDbSymbolTable
70
2
0
LAYER
5
50
100
AcDbSymbolTableRecord
100
AcDbLayerTableRecord
2
0
70
0
6
CONTINUOUS
0
ENDTAB
0
TABLE
2
STYLE
5
3
100
AcDbSymbolTable
70
1
0
STYLE
5
11
100
AcDbSymbolTableRecord
100
AcDbTextStyleTableRecord
2
STANDARD
70
0
0
ENDTAB
0
TABLE
2
VIEW
5
6
100
AcDbSymbolTable
70
0
0
ENDTAB
0
TABLE
2
UCS
5
7
100
AcDbSymbolTable
70
0
0
ENDTAB
0
TABLE
2
APPID
5
9
100
AcDbSymbolTable
70
2
0
APPID
5
12
100
AcDbSymbolTableRecord
100
AcDbRegAppTableRecord
2
ACAD
70
0
0
ENDTAB
0
TABLE
2
DIMSTYLE
5
A
100
AcDbSymbolTable
70
1
0
ENDTAB
0
TABLE
2
BLOCK_RECORD
5
1
100
AcDbSymbolTable
70
1
0
BLOCK_RECORD
5
1F
100
AcDbSymbolTableRecord
100
AcDbBlockTableRecord
2
*MODEL_SPACE
0
BLOCK_RECORD
5
1B
100
AcDbSymbolTableRecord
100
AcDbBlockTableRecord
2
*PAPER_SPACE
0
ENDTAB
0
ENDSEC
0
SECTION
2
BLOCKS
0
BLOCK
5
20
100
AcDbEntity
100
AcDbBlockBegin
2
*MODEL_SPACE
0
ENDBLK
5
21
100
AcDbEntity
100
AcDbBlockEnd
0
BLOCK
5
1C
100
AcDbEntity
100
AcDbBlockBegin
2
*PAPER_SPACE
0
ENDBLK
5
1D
100
AcDbEntity
100
AcDbBlockEnd
0
ENDSEC
0
SECTION
2
ENTITIES
0
LWPOLYLINE
5
100
100
AcDbEntity
8
0
100
AcDbPolyline
90
16
70
1
43
0.0
10
-16.636692045576822
20
11.171156501045562
42
0.10679190866001828
10
-16.955385402105428
20
10.141067517665769
10
-17.965145398806314
20
-1.4005420578641758
42
0.10679190866001821
10
-17.830166785262097
20
-2.4703221955848029
42
-0.69220681940738493
10
-18.188657193144838
20
-2.7711313646198148
42
0.10679190866001814
10
-19.218746176524629
20
-2.4524380080912107
10
-30.660736282245395
20
-1.4513935856650857
42
0.10679190866001821
10
-31.730516419966023
20
-1.5863721992093018
42
-0.6922068194073695
10
-32.031325589001035
20
-1.2278817913265618
42
0.10679190866001814
10
-31.71263223247243
20
-0.19779280794677015
10
-30.702872235771544
20
11.343816767583171
42
0.10679190866001821
10
-30.837850849315764
20
12.413596905303796
42
-0.69220681940738182
10
-30.479360441433023
20
12.714406074338809
42
0.10679190866001868
10
-29.449271458053229
20
12.395712717810202
10
-18.007281352332466
20
11.394668295384085
42
0.10679190866001834
10
-16.937501214611835
20
11.529646908928299
42
-0.69220681940737883
0
LWPOLYLINE
5
101
100
AcDbEntity
8
0
100
AcDbPolyline
90
16
70
1
43
0.0
10
-10.626192045576827
20
63.40705650104357
42
0.106791908660018
10
-10.944885402105431
20
62.376967517663779
10
-11.954645398806317
20
50.835357942133825
42
0.10679190866001786
10
-11.819666785262097
20
49.765577804413198
42
-0.69220681940739148
10
-12.178157193144843
20
49.464768635378185
42
0.10679190866001766
10
-13.208246176524629
20
49.78346199190679
10
-24.650236282245395
20
50.784506414332924
42
0.10679190866001814
10
-25.720016419966022
20
50.649527800788718
42
-0.69220681940736128
10
-26.020825589001038
20
51.008018208671444
42
0.10679190866001821
10
-25.702132232472433
20
52.038107192051235
10
-24.692372235771547
20
63.579716767581182
42
0.10679190866001793
10
-24.827350849315764
20
64.649496905301802
42
-0.69220681940738482
10
-24.468860441433023
20
64.950306074336822
42
0.10679190866001854
10
-23.438771458053228
20
64.63161271780821
10
-11.996781352332466
20
63.630568295382091
42
0.10679190866001841
10
-10.927001214611838
20
63.765546908926311
42
-0.69220681940738327
0
LWPOLYLINE
5
102
100
AcDbEntity
8
0
100
AcDbPolyline
90
16
70
1
43
0.0
10
1.7509908493161819
20
98.635796905301845
42
0.10679190866001963
10
1.6160122357719655
20
97.566016767581203
10
2.625772232472849
20
86.024407192051257
42
0.10679190866001671
10
2.9444655890014459
20
84.994318208671473
42
-0.6922068194073836
10
2.6436564199664394
20
84.635827800788718
42
0.10679190866001739
10
1.573876282245819
20
84.770806414332952
10
-9.8681138234749515
20
83.769761991906819
42
0.10679190866001807
10
-10.898202806854741
20
83.451068635378221
42
-0.69220681940739803
10
-11.256693214737483
20
83.751877804413226
42
0.10679190866001793
10
-11.121714601193268
20
84.821657942133854
10
-12.131474597894151
20
96.363267517663786
42
0.10679190866001957
10
-12.450167954422756
20
97.393356501043598
42
-0.69220681940736806
10
-12.149358785387747
20
97.751846908926311
42
0.106791908660018
10
-11.07957864766712
20
97.616868295382119
10
0.36241145805364861
20
98.617912717808238
42
0.10679190866001834
10
1.3925004414334379
20
98.936606074336851
42
-0.69220681940739148
0
LWPOLYLINE
5
103
100
AcDbEntity
8
0
100
AcDbPolyline
90
16
70
1
43
0.0
10
-37.121172190130586
20
12.976109403630534
42
0.10679190866001781
10
-37.528430992664219
20
11.977716176021914
10
-39.540266102783001
20
0.56803229194365423
42
0.10679190866001814
10
-39.499038606094345
20
-0.50944117069599271
42
-0.69220681940736706
10
-39.882382096296467
20
-0.77786117225907581
42
0.10679190866001807
10
-40.880775323905084
20
-0.37060236972544819
10
-52.191978432682127
20
1.6238679226266366
42
0.10679190866001752
10
-53.269451895321765
20
1.5826404259379805
42
-0.69220681940735229
10
-53.537871896884859
20
1.9659839161400992
42
0.10679190866001828
10
-53.130613094351233
20
2.9643771437487185
10
-51.118777984232445
20
14.374061027826979
42
0.10679190866001854
10
-51.1600054809211
20
15.451534490466628
42
-0.69220681940738127
10
-50.776661990718985
20
15.719954492029709
42
0.106791908660018
10
-49.778268763110361
20
15.312695689496078
10
-38.467065654333325
20
13.318225397143999
42
0.10679190866001888
10
-37.389592191693673
20
13.359452893832657
42
-0.69220681940738515
0
LWPOLYLINE
5
104
100
AcDbEntity
8
0
100
AcDbPolyline
90
16
70
1
43
0.0
10
-42.488191389392043
20
67.557176654356894
42
0.106791908660018
10
-42.98091615253405
20
66.598077557828006
10
-45.97951509610624
20
55.407153948915749
42
0.10679190866001759
10
-46.032352482417053
20
54.330187385004088
42
-0.6922068194073705
10
-46.437631579509045
20
54.09619938920136
42
0.10679190866001807
10
-47.396730676037933
20
54.588924152343374
10
-58.491061702321275
20
57.561641191405258
42
0.10679190866001848
10
-59.568028266232957
20
57.614478577716056
42
-0.6922068194073826
10
-59.802016262035679
20
58.019757674808062
42
0.10679190866001786
10
-59.309291498893671
20
58.97885677133695
10
-56.310692555321481
20
70.169780380249193
42
0.10679190866001929
10
-56.257855169010654
20
71.24674694416089
42
-0.69220681940735573
10
-55.852576071918691
20
71.480734939963597
42
0.10679190866001861
10
-54.893476975389788
20
70.988010176821589
10
-43.799145949106439
20
68.015293137759699
42
0.10679190866001821
10
-42.722179385194757
20
67.962455751448886
42
-0.69220681940737872
0
LWPOLYLINE
5
105
100
AcDbEntity
8
0
100
AcDbPolyline
90
16
70
1
43
0.0
10
16.772695169004056
20
102.39734694416099
42
0.10679190866001834
10
16.825532555314876
20
101.3203803802493
10
19.824131498887066
20
90.129456771337061
42
0.10679190866001977
10
20.316856262029095
20
89.170357674808173
42
-0.69220681940740336
10
20.082868266226356
20
88.765078577716196
42
0.10679190866001814
10
19.005901702314681
20
88.712241191405354
10
7.911570676031328
20
85.739524152343478
42
0.10679190866001828
10
6.9524715795024346
20
85.246799389201456
42
-0.69220681940734163
10
6.5471924824104599
20
85.480787385004191
42
0.10679190866001848
10
6.4943550960996337
20
86.55775394891586
10
3.4957561525274499
20
97.748677557828103
42
0.10679190866001712
10
3.0030313893854377
20
98.707776654356991
42
-0.69220681940742823
10
3.2370193851881561
20
99.113055751448968
42
0.10679190866001834
10
4.313985949099834
20
99.165893137759795
10
15.408316975383185
20
102.13861017682169
42
0.10679190866001828
10
16.367416071912071
20
102.63133493996371
42
-0.6922068194073504
0
LWPOLYLINE
5
106
100
AcDbEntity
8
0
100
AcDbPolyline
90
16
70
1
43
0.0
10
-61.213154584494085
20
54.4100195020699
42
0.10679190866001834
10
-61.864939561651376
20
53.551052033112001
10
-66.761266540549187
20
43.050844941791411
42
0.10679190866001841
10
-67.000314489468082
20
41.999415035761743
42
-0.69220681940739692
10
-67.440068075485087
20
41.839357820039808
42
0.10679190866001698
10
-68.299035544442987
20
42.491142797197092
10
-78.708611857059921
20
47.34520794992082
42
0.10679190866001841
10
-79.760041763089589
20
47.584255898839729
42
-0.69220681940737872
10
-79.920098978811524
20
48.02400948485672
42
0.10679190866001874
10
-79.268314001654232
20
48.882976953814619
10
-74.371987022756429
20
59.383184045135209
42
0.10679190866001841
10
-74.13293907383752
20
60.434613951164877
42
-0.69220681940739692
10
-73.693185487820529
20
60.594671166886812
42
0.10679190866001657
10
-72.834218018862629
20
59.942886189729535
10
-62.424641706245694
20
55.0888210370058
42
0.10679190866001841
10
-61.373211800216026
20
54.849773088086891
42
-0.69220681940737872
0
LWPOLYLINE
5
107
100
AcDbEntity
8
0
100
AcDbPolyline
90
16
70
1
43
0.0
10
-31.121172190130579
20
48.726109403623539
42
0.10679190866001718
10
-31.528430992664205
20
47.72771617601493
10
-33.540266102782994
20
36.318032291936653
42
0.10679190866001759
10
-33.499038606094345
20
35.240558829297015
42
-0.69220681940736173
10
-33.88238209629646
20
34.972138827733929
42
0.10679190866001807
10
-34.880775323905077
20
35.379397630267555
10
-46.19197843268212
20
37.373867922619638
42
0.10679190866001841
10
-47.269451895321772
20
37.332640425930983
42
-0.69220681940736783
10
-47.537871896884852
20
37.715983916133098
42
0.10679190866001848
10
-47.130613094351226
20
38.714377143741721
10
-45.118777984232437
20
50.124061027819984
42
0.10679190866001861
10
-45.160005480921093
20
51.201534490459636
42
-0.69220681940736617
10
-44.776661990718978
20
51.469954492022715
42
0.10679190866001718
10
-43.778268763110368
20
51.06269568948909
10
-32.467065654333318
20
49.068225397137006
42
0.10679190866001903
10
-31.389592191693666
20
49.109452893825669
42
-0.6922068194073725
0
LWPOLYLINE
5
108
100
AcDbEntity
8
0
100
AcDbPolyline
90
16
70
1
43
0.0
10
-34.371172190130586
20
29.226109403623532
42
0.10679190866001793
10
-34.778430992664212
20
28.227716176014912
10
-36.790266102783001
20
16.81803229193665
42
0.106791908660018
10
-36.749038606094338
20
15.740558829297006
42
-0.6922068194073866
10
-37.13238209629646
20
15.472138827733923
42
0.10679190866001793
10
-38.130775323905077
20
15.879397630267553
10
-49.44197843268212
20
17.873867922619635
42
0.10679190866001834
10
-50.519451895321765
20
17.832640425930975
42
-0.69220681940735518
10
-50.787871896884852
20
18.215983916133098
42
0.10679190866001821
10
-50.380613094351219
20
19.214377143741714
10
-48.368777984232445
20
30.624061027819973
42
0.10679190866001903
10
-48.4100054809211
20
31.701534490459629
42
-0.69220681940739703
10
-48.026661990718971
20
31.969954492022708
42
0.10679190866001759
10
-47.028268763110361
20
31.562695689489072
10
-35.717065654333318
20
29.568225397136992
42
0.10679190866001881
10
-34.639592191693666
20
29.609452893825654
42
-0.6922068194073715
0
LWPOLYLINE
5
109
100
AcDbEntity
8
0
100
AcDbPolyline
90
16
70
1
43
0.0
10
-57.253197100777804
20
15.69706980066675
42
0.10679190866001732
10
-57.827637891564777
20
14.784564158461784
10
-61.790179520019777
20
3.8975705106422431
42
0.10679190866001841
10
-61.936679664915545
20
2.8293072113000797
42
-0.69220681940740147
10
-62.360809950254172
20
2.6315320111913598
42
0.10679190866001793
10
-63.273315592459134
20
3.2059728019783469
10
-74.066339978200091
20
7.1343124161007454
42
0.10679190866001868
10
-75.134603277542254
20
7.2808125609965124
42
-0.69220681940739326
10
-75.332378477650977
20
7.7049428463351379
42
0.10679190866001786
10
-74.757937686863997
20
8.6174484885401039
10
-70.795396058409011
20
19.504442136359646
42
0.10679190866001841
10
-70.648895913513243
20
20.572705435701806
42
-0.6922068194073927
10
-70.224765628174609
20
20.770480635810529
42
0.10679190866001773
10
-69.312259985969646
20
20.196039845023542
10
-58.519235600228683
20
16.267700230901148
42
0.10679190866001868
10
-57.450972300886519
20
16.121200086005384
42
-0.6922068194073846
0
LWPOLYLINE
5
110
100
AcDbEntity
8
0
100
AcDbPolyline
90
16
70
1
43
0.0
10
-51.197497100777802
20
32.086469800658755
42
0.10679190866001766
10
-51.771937891564789
20
31.173964158453789
10
-55.734479520019775
20
20.286970510634244
42
0.10679190866001814
10
-55.880979664915543
20
19.218707211292084
42
-0.69220681940740281
10
-56.30510995025417
20
19.020932011183366
42
0.10679190866001773
10
-57.217615592459133
20
19.595372801970353
10
-68.010639978200089
20
23.523712416092746
42
0.10679190866001861
10
-69.078903277542253
20
23.670212560988521
42
-0.69220681940739315
10
-69.276678477650975
20
24.094342846327145
42
0.10679190866001781
10
-68.702237686863995
20
25.006848488532111
10
-64.73969605840901
20
35.893842136351651
42
0.10679190866001841
10
-64.593195913513242
20
36.962105435693815
42
-0.6922068194073927
10
-64.169065628174607
20
37.159880635802537
42
0.10679190866001773
10
-63.256559985969645
20
36.58543984501555
10
-52.463535600228681
20
32.65710023089315
42
0.10679190866001868
10
-51.395272300886518
20
32.510600085997375
42
-0.69220681940737949
0
LWPOLYLINE
5
111
100
AcDbEntity
8
0
100
AcDbPolyline
90
16
70
1
43
0.0
10
-99.679644425107426
20
47.808235996742887
42
0.10679190866001814
10
-100.47068545956841
20
47.075499447241789
10
-107.11596805620144
20
37.58505235262141
42
0.10679190866001793
10
-107.53396321676485
20
36.591106270119212
42
-0.69220681940742335
10
-107.99482960152184
20
36.509843091984976
42
0.10679190866001718
10
-108.72756615102293
20
37.300884126445951
10
-118.1360980412144
20
43.888809079443867
42
0.10679190866001705
10
-119.13004412371657
20
44.306804240007274
42
-0.69220681940741813
10
-119.21130730185084
20
44.767670624764271
42
0.10679190866001692
10
-118.42026626738986
20
45.500407174265369
10
-111.77498367075685
20
54.990854268885734
42
0.10679190866001881
10
-111.35698851019343
20
55.984800351387932
42
-0.69220681940743456
10
-110.89612212543643
20
56.066063529522168
42
0.10679190866001652
10
-110.16338557593535
20
55.275022495061201
10
-100.75485368574388
20
48.687097542063285
42
0.10679190866001705
10
-99.760907603241691
20
48.269102381499884
42
-0.69220681940736717
0
LWPOLYLINE
5
112
100
AcDbEntity
8
0
100
AcDbPolyline
90
16
70
1
43
0.0
10
-26.283672190130581
20
64.598809403623534
42
0.10679190866001828
10
-26.690930992664221
20
63.600416176014917
10
-28.702766102782999
20
52.190732291936648
42
0.10679190866001841
10
-28.661538606094339
20
51.113258829296996
42
-0.69220681940736783
10
-29.044882096296458
20
50.844838827733916
42
0.10679190866001848
10
-30.043275323905082
20
51.252097630267542
10
-41.354478432682114
20
53.246567922619633
42
0.10679190866001814
10
-42.431951895321767
20
53.205340425930963
42
-0.69220681940738038
10
-42.700371896884846
20
53.5886839161331
42
0.106791908660018
10
-42.29311309435122
20
54.587077143741716
10
-40.281277984232446
20
65.996761027819971
42
0.10679190866001745
10
-40.322505480921095
20
67.074234490459617
42
-0.69220681940738193
10
-39.939161990718979
20
67.342654492022703
42
0.10679190866001903
10
-38.940768763110356
20
66.935395689489084
10
-27.629565654333316
20
64.940925397136994
42
0.10679190866001861
10
-26.552092191693674
20
64.982152893825656
42
-0.69220681940736239
0
LWPOLYLINE
5
113
100
AcDbEntity
8
0
100
AcDbPolyline
90
16
70
1
43
0.0
10
-12.886692045576824
20
27.661856501043562
42
0.106791908660018
10
-13.20538540210543
20
26.631767517663771
10
-14.215145398806314
20
15.090157942133825
42
0.10679190866001786
10
-14.080166785262097
20
14.020377804413201
42
-0.69220681940738937
10
-14.43865719314484
20
13.719568635378188
42
0.10679190866001766
10
-15.468746176524629
20
14.03826199190679
10
-26.910736282245395
20
15.039306414332916
42
0.10679190866001814
10
-27.980516419966023
20
14.904327800788701
42
-0.6922068194073685
10
-28.281325589001035
20
15.26281820867144
42
0.10679190866001854
10
-27.96263223247243
20
16.292907192051235
10
-26.952872235771544
20
27.834516767581174
42
0.10679190866001793
10
-27.087850849315757
20
28.904296905301798
42
-0.69220681940737683
10
-26.729360441433023
20
29.205106074336811
42
0.10679190866001854
10
-25.699271458053229
20
28.886412717808202
10
-14.257281352332464
20
27.885368295382087
42
0.10679190866001841
10
-13.187501214611837
20
28.020346908926307
42
-0.69220681940737705
0
LWPOLYLINE
5
114
100
AcDbEntity
8
0
100
AcDbPolyline
90
16
70
1
43
0.0
10
-10.886692045576826
20
46.421156501043555
42
0.106791908660018
10
-11.20538540210543
20
45.391067517663764
10
-12.215145398806317
20
33.849457942133824
42
0.10679190866001786
10
-12.080166785262099
20
32.779677804413197
42
-0.6922068194073836
10
-12.43865719314484
20
32.478868635378184
42
0.10679190866001807
10
-13.468746176524631
20
32.79756199190679
10
-24.910736282245395
20
33.798606414332909
42
0.10679190866001828
10
-25.980516419966019
20
33.663627800788696
42
-0.69220681940739592
10
-26.281325589001035
20
34.022118208671436
42
0.106791908660018
10
-25.96263223247243
20
35.052207192051227
10
-24.952872235771547
20
46.593816767581167
42
0.10679190866001881
10
-25.087850849315764
20
47.663596905301802
42
-0.69220681940737017
10
-24.729360441433023
20
47.964406074336807
42
0.10679190866001834
10
-23.699271458053232
20
47.645712717808195
10
-12.257281352332466
20
46.644668295382075
42
0.10679190866001841
10
-11.187501214611837
20
46.779646908926296
42
-0.69220681940738327
0
LWPOLYLINE
5
115
100
AcDbEntity
8
0
100
AcDbPolyline
90
16
70
1
43
0.0
10
-81.590824488338882
20
45.991930698682459
42
0.10679190866001718
10
-82.314993174632008
20
45.193038664069292
10
-88.107841499182797
20
35.159531045412152
42
0.10679190866001848
10
-88.437617952892751
20
34.132936549150664
42
-0.69220681940737339
10
-88.889648049268075
20
34.011815449872429
42
0.10679190866001834
10
-89.688540083881236
20
34.735984136165555
10
-99.635445162159954
20
40.47883246071634
42
0.10679190866001781
10
-100.66203965842143
20
40.808608914426259
42
-0.69220681940741102
10
-100.78316075769968
20
41.260639010801619
42
0.10679190866001881
10
-100.05899207140652
20
42.059531045414779
10
-94.266143746855761
20
52.093038664071912
42
0.10679190866001786
10
-93.936367293145821
20
53.119633160333407
42
-0.6922068194074017
10
-93.484337196770468
20
53.240754259611649
42
0.10679190866001854
10
-92.685445162157322
20
52.516585573318501
10
-82.738540083878604
20
46.773737248767738
42
0.10679190866001807
10
-81.711945587617123
20
46.443960795057812
42
-0.69220681940745732
0
LWPOLYLINE
5
116
100
AcDbEntity
8
0
100
AcDbPolyline
90
16
70
1
43
0.0
10
-75.360956839664382
20
79.442122706853823
42
0.10679190866001718
10
-76.387551335925863
20
79.112346253143897
10
-86.421058954583017
20
73.319497928593108
42
0.10679190866001807
10
-87.219950989196192
20
72.595329242299982
42
-0.69220681940741824
10
-87.671981085571517
20
72.716450341578209
42
0.10679190866001807
10
-88.001757539281456
20
73.743044837839705
10
-93.74460586383222
20
83.689949916118408
42
0.10679190866001834
10
-94.468774550125374
20
84.488841950731555
42
-0.69220681940748952
10
-94.347653450847119
20
84.940872047106893
42
0.10679190866001807
10
-93.321058954585624
20
85.270648500816847
10
-83.287551335928498
20
91.063496825367622
42
0.10679190866001929
10
-82.488659301315323
20
91.787665511660762
42
-0.69220681940740969
10
-82.036629204939985
20
91.666544412382535
42
0.10679190866001936
10
-81.706852751230059
20
90.63994991612104
10
-75.964004426679281
20
80.693044837842336
42
0.10679190866001759
10
-75.239835740386141
20
79.89415280322919
42
-0.6922068194074078
0
LWPOLYLINE
5
117
100
AcDbEntity
8
0
100
AcDbPolyline
90
16
70
1
43
0.0
10
-58.360434584494072
20
72.247079502069894
42
0.10679190866001834
10
-59.012219561651371
20
71.388112033111994
10
-63.908546540549182
20
60.887904941791405
42
0.10679190866001841
10
-64.147594489468077
20
59.836475035761737
42
-0.69220681940739692
10
-64.587348075485082
20
59.676417820039802
42
0.10679190866001698
10
-65.446315544442967
20
60.328202797197086
10
-75.855891857059902
20
65.182267949920814
42
0.10679190866001841
10
-76.90732176308957
20
65.421315898839723
42
-0.69220681940737872
10
-77.067378978811519
20
65.861069484856714
42
0.10679190866001834
10
-76.415594001654227
20
66.720036953814613
10
-71.519267022756424
20
77.220244045135203
42
0.10679190866001841
10
-71.280219073837515
20
78.271673951164871
42
-0.69220681940737872
10
-70.840465487820524
20
78.43173116688682
42
0.1067919086600195
10
-69.981498018862609
20
77.779946189729515
10
-59.571921706245689
20
72.925881037005794
42
0.10679190866001841
10
-58.520491800216021
20
72.686833088086885
42
-0.69220681940737872
0
LWPOLYLINE
5
118
100
AcDbEntity
8
0
100
AcDbPolyline
90
16
70
1
43
0.0
10
12.742045480921503
20
84.98313449045969
42
0.10679190866001814
10
12.700817984232851
20
83.905661027820045
10
14.712653094351635
20
72.495977143741783
42
0.106791908660018
10
15.119911896885265
20
71.497583916133166
42
-0.69220681940737749
10
14.85149189532218
20
71.114240425931058
42
0.10679190866001854
10
13.774018432682531
20
71.155467922619707
10
2.4628153239054962
20
69.16099763026763
42
0.10679190866001793
10
1.4644220962968768
20
68.753738827734011
42
-0.69220681940739992
10
1.0810786060947568
20
69.022158829297084
42
0.10679190866001834
10
1.12230610278341
20
70.099632291936743
10
-0.88952900733537177
20
81.509316176014991
42
0.10679190866001881
10
-1.2967878098690138
20
82.507709403623608
42
-0.69220681940734519
10
-1.0283678083059158
20
82.891052893825744
42
0.10679190866001759
10
0.049105654333724824
20
82.849825397137081
10
11.360308763110767
20
84.844295689489144
42
0.10679190866001841
10
12.358701990719394
20
85.251554492022763
42
-0.69220681940735951
0
LWPOLYLINE
5
119
100
AcDbEntity
8
0
100
AcDbPolyline
90
16
70
1
43
0.0
10
-2.65372753835155
20
82.451828218511295
42
0.10679190866001943
10
-2.8814299999997894
20
81.397883078508627
10
-2.8814299999997912
20
69.81218642941144
42
0.10679190866001759
10
-2.6537275383515575
20
68.758241289408787
42
-0.69220681940738893
10
-2.9846365354485411
20
68.427332292311803
42
0.10679190866001854
10
-4.0385816754512014
20
68.655034753960038
10
-15.524278324548382
20
68.655034753960038
42
0.10679190866001828
10
-16.578223464551037
20
68.427332292311817
42
-0.6922068194073927
10
-16.909132461648028
20
68.758241289408787
42
0.10679190866001854
10
-16.681429999999793
20
69.812186429411454
10
-16.681429999999789
20
81.397883078508642
42
0.10679190866001759
10
-16.909132461648031
20
82.451828218511281
42
-0.69220681940740392
10
-16.578223464551037
20
82.782737215608279
42
0.10679190866001848
10
-15.52427832454838
20
82.555034753960044
10
-4.0385816754511978
20
82.555034753960044
42
0.10679190866001807
10
-2.9846365354485425
20
82.782737215608279
42
-0.69220681940739615
0
LWPOLYLINE
5
120
100
AcDbEntity
8
0
100
AcDbPolyline
90
16
70
1
43
0.0
10
28.14263591350462
20
90.370605435693946
42
0.10679190866001834
10
28.289136058400381
20
89.302342136351768
10
32.251677686855381
20
78.415348488532246
42
0.10679190866001854
10
32.826118477642375
20
77.502842846327283
42
-0.69220681940737649
10
32.628343277533645
20
77.078712560988649
42
0.10679190866001766
10
31.560079978191489
20
76.932212416092881
10
20.767055592450522
20
73.003872801970488
42
0.10679190866001752
10
19.854549950245559
20
72.429432011183508
42
-0.69220681940738193
10
19.430419664906925
20
72.627207211292216
42
0.10679190866001773
10
19.283919520011157
20
73.695470510634379
10
15.321377891556171
20
84.582464158453931
42
0.10679190866001793
10
14.746937100769191
20
85.494969800658893
42
-0.69220681940740203
10
14.944712300877899
20
85.919100085997528
42
0.10679190866001881
10
16.01297560022007
20
86.065600230893295
10
26.805999985961027
20
89.993939845015674
42
0.10679190866001793
10
27.718505628165996
20
90.568380635802654
42
-0.69220681940739803
0
LWPOLYLINE
5
121
100
AcDbEntity
8
0
100
AcDbPolyline
90
16
70
1
43
0.0
10
-46.418191389392035
20
50.73877665435689
42
0.10679190866001834
10
-46.91091615253405
20
49.779677557828002
10
-49.90951509610624
20
38.588753948915752
42
0.10679190866001814
10
-49.96235248241706
20
37.511787385004077
42
-0.69220681940738293
10
-50.367631579509045
20
37.277799389201355
42
0.10679190866001793
10
-51.326730676037933
20
37.770524152343363
10
-62.421061702321282
20
40.743241191405261
42
0.10679190866001936
10
-63.498028266232971
20
40.796078577716088
42
-0.6922068194073534
10
-63.732016262035678
20
41.201357674808051
42
0.10679190866001861
10
-63.239291498893671
20
42.160456771336953
10
-60.24069255532148
20
53.351380380249196
42
0.10679190866001759
10
-60.187855169010689
20
54.428346944160864
42
-0.6922068194073826
10
-59.782576071918676
20
54.662334939963593
42
0.106791908660018
10
-58.823476975389788
20
54.169610176821585
10
-47.729145949106439
20
51.196893137759687
42
0.10679190866001834
10
-46.652179385194756
20
51.144055751448867
42
-0.69220681940735607
0
LWPOLYLINE
5
122
100
AcDbEntity
8
0
100
AcDbPolyline
90
16
70
1
43
0.0
10
-89.645824488338917
20
30.989430698682455
42
0.10679190866001678
10
-90.369993174632015
20
30.190538664069294
10
-96.162841499182832
20
20.15703104541215
42
0.10679190866001828
10
-96.492617952892772
20
19.130436549150662
42
-0.69220681940739648
10
-96.944648049268096
20
19.009315449872432
42
0.10679190866001814
10
-97.743540083881271
20
19.733484136165558
10
-107.69044516215997
20
25.476332460716336
42
0.10679190866001781
10
-108.71703965842146
20
25.806108914426268
42
-0.69220681940745421
10
-108.8381607576997
20
26.258139010801607
42
0.10679190866001793
10
-108.11399207140656
20
27.057031045414771
10
-102.32114374685578
20
37.090538664071914
42
0.10679190866001848
10
-101.99136729314587
20
38.11713316033341
42
-0.69220681940740314
10
-101.5393371967705
20
38.238254259611637
42
0.10679190866001848
10
-100.74044516215734
20
37.514085573318503
10
-90.793540083878639
20
31.771237248767736
42
0.10679190866001793
10
-89.766945587617144
20
31.441460795057804
42
-0.69220681940745798
0
LWPOLYLINE
5
123
100
AcDbEntity
8
0
100
AcDbPolyline
90
16
70
1
43
0.0
10
-75.247424488338908
20
61.080570698682457
42
0.10679190866001781
10
-75.971593174632034
20
60.28167866406929
10
-81.764441499182823
20
50.24817104541215
42
0.10679190866001786
10
-82.094217952892762
20
49.221576549150669
42
-0.69220681940739703
10
-82.546248049268087
20
49.100455449872427
42
0.10679190866001834
10
-83.345140083881262
20
49.824624136165561
10
-93.292045162159965
20
55.567472460716338
42
0.10679190866001752
10
-94.318639658421461
20
55.897248914426271
42
-0.69220681940745976
10
-94.439760757699688
20
56.349279010801617
42
0.10679190866001881
10
-93.715592071406547
20
57.148171045414777
10
-87.922743746855772
20
67.18167866407191
42
0.10679190866001888
10
-87.592967293145847
20
68.20827316033342
42
-0.69220681940732798
10
-87.140937196770494
20
68.329394259611632
42
0.10679190866001854
10
-86.342045162157319
20
67.605225573318506
10
-76.395140083878616
20
61.862377248767743
42
0.10679190866001821
10
-75.368545587617135
20
61.53260079505781
42
-0.69220681940739659
0
LWPOLYLINE
5
124
100
AcDbEntity
8
0
100
AcDbPolyline
90
16
70
1
43
0.0
10
-66.088334584494078
20
38.682079502069911
42
0.10679190866001834
10
-66.740119561651369
20
37.823112033112004
10
-71.636446540549187
20
27.322904941791407
42
0.10679190866001793
10
-71.875494489468082
20
26.271475035761746
42
-0.69220681940740858
10
-72.315248075485087
20
26.111417820039804
42
0.10679190866001698
10
-73.174215544442973
20
26.763202797197092
10
-83.583791857059907
20
31.617267949920823
42
0.10679190866001922
10
-84.635221763089575
20
31.856315898839725
42
-0.69220681940739293
10
-84.795278978811524
20
32.296069484856723
42
0.10679190866001664
10
-84.143494001654233
20
33.155036953814616
10
-79.247167022756429
20
43.655244045135213
42
0.10679190866001718
10
-79.00811907383752
20
44.706673951164866
42
-0.69220681940741058
10
-78.568365487820529
20
44.866731166886815
42
0.10679190866001657
10
-77.709398018862629
20
44.214946189729538
10
-67.299821706245694
20
39.360881037005804
42
0.10679190866001848
10
-66.248391800216027
20
39.121833088086895
42
-0.69220681940737461
0
LWPOLYLINE
5
125
100
AcDbEntity
8
0
100
AcDbPolyline
90
16
70
1
43
0.0
10
-89.761856839656403
20
71.527922706853815
42
0.10679190866001786
10
-90.788451335917898
20
71.198146253143889
10
-100.82195895457504
20
65.4052979285931
42
0.10679190866001807
10
-101.62085098918821
20
64.681129242299974
42
-0.69220681940741824
10
-102.07288108556354
20
64.802250341578201
42
0.10679190866001807
10
-102.40265753927348
20
65.828844837839696
10
-108.14550586382424
20
75.775749916118386
42
0.10679190866001917
10
-108.86967455011737
20
76.574641950731561
42
-0.69220681940745099
10
-108.74855345083914
20
77.026672047106914
42
0.10679190866001786
10
-107.72195895457764
20
77.356448500816839
10
-97.688451335920519
20
83.149296825367642
42
0.10679190866001705
10
-96.889559301307344
20
83.873465511660754
42
-0.69220681940741213
10
-96.437529204931991
20
83.752344412382513
42
0.10679190866001786
10
-96.10775275122208
20
82.725749916121032
10
-90.364904426671302
20
72.778844837842328
42
0.10679190866001834
10
-89.640735740378148
20
71.979952803229182
42
-0.69220681940745221
0
LWPOLYLINE
5
126
100
AcDbEntity
8
0
100
AcDbPolyline
90
16
70
1
43
0.0
10
-106.03571604882495
20
63.470270926162122
42
0.10679190866001936
10
-107.08714595485462
20
63.231222977243213
10
-117.58735304617522
20
58.334895998345402
42
0.10679190866001705
10
-118.44632051513312
20
57.683111021188118
42
-0.69220681940738849
10
-118.88607410115011
20
57.84316823691006
42
0.10679190866001814
10
-119.125122050069
20
58.894598142939721
10
-123.97918720279273
20
69.304174455556648
42
0.10679190866001664
10
-124.63097217995001
20
70.163141924514548
42
-0.69220681940741713
10
-124.47091496422809
20
70.602895510531553
42
0.10679190866001929
10
-123.41948505819842
20
70.841943459450448
10
-112.91927796687784
20
75.738270438348266
42
0.10679190866001895
10
-112.06031049791991
20
76.390055415505557
42
-0.69220681940737872
10
-111.62055691190292
20
76.229998199783608
42
0.10679190866001814
10
-111.38150896298404
20
75.178568293753941
10
-106.52744381026031
20
64.768991981137006
42
0.10679190866001725
10
-105.87565883310303
20
63.910024512179106
42
-0.69220681940739692
0
LWPOLYLINE
5
127
100
AcDbEntity
8
0
100
AcDbPolyline
90
16
70
1
43
0.0
10
-13.843227538351556
20
97.360128218511278
42
0.10679190866001582
10
-14.070929999999787
20
96.306183078508653
10
-14.070929999999791
20
84.720486429411451
42
0.1067919086600195
10
-13.843227538351549
20
83.666541289408798
42
-0.69220681940740003
10
-14.174136535448543
20
83.3356322923118
42
0.10679190866001848
10
-15.228081675451202
20
83.563334753960021
10
-26.713778324548379
20
83.563334753960049
42
0.10679190866001895
10
-27.767723464551036
20
83.3356322923118
42
-0.69220681940743012
10
-28.098632461648027
20
83.666541289408798
42
0.10679190866001766
10
-27.870929999999792
20
84.720486429411451
10
-27.870929999999792
20
96.306183078508639
42
0.10679190866001759
10
-28.098632461648037
20
97.360128218511264
42
-0.6922068194074068
10
-27.767723464551043
20
97.691037215608262
42
0.10679190866001936
10
-26.713778324548375
20
97.463334753960027
10
-15.2280816754512
20
97.463334753960027
42
0.10679190866001828
10
-14.174136535448536
20
97.691037215608247
42
-0.69220681940740714
0
LWPOLYLINE
5
128
100
AcDbEntity
8
0
100
AcDbPolyline
90
16
70
1
43
0.0
10
-73.454634584494073
20
23.187779502069908
42
0.106791908660018
10
-74.106419561651379
20
22.328812033112008
10
-79.002746540549182
20
11.82860494179141
42
0.10679190866001821
10
-79.241794489468077
20
10.777175035761745
42
-0.69220681940740036
10
-79.681548075485082
20
10.617117820039805
42
0.10679190866001732
10
-80.540515544442982
20
11.268902797197097
10
-90.950091857059903
20
16.122967949920824
42
0.10679190866001936
10
-92.001521763089585
20
16.362015898839733
42
-0.69220681940739082
10
-92.161578978811519
20
16.801769484856724
42
0.10679190866001739
10
-91.509794001654242
20
17.660736953814627
10
-86.613467022756424
20
28.16094404513521
42
0.10679190866001854
10
-86.374419073837515
20
29.212373951164881
42
-0.6922068194073725
10
-85.934665487820524
20
29.372431166886823
42
0.10679190866001793
10
-85.075698018862624
20
28.720646189729525
10
-74.66612170624569
20
23.866581037005801
42
0.10679190866001848
10
-73.614691800216022
20
23.627533088086892
42
-0.69220681940737461
0
LINE
5
129
100
AcDbEntity
8
0
100
AcDbLine
10
-59.376359891270774
20
97.01562858490972
30
0
11
-34.336707618538533
21
97.016018480843783
31
0
0
SPLINE
5
130
100
AcDbEntity
8
0
100
AcDbSpline
70
0
71
3
72
22
73
18
74
0
42
0.000000001
43
0.0000000001
44
0.0000000001
40
0
40
0
40
0
40
0
40
0.029761362792961772
40
0.029761362792961772
40
0.047596829761350046
40
0.047596829761350046
40
0.065678902065001862
40
0.065678902065001862
40
0.095019701429481004
40
0.095019701429481004
40
0.12193716949519989
40
0.12193716949519989
40
0.14371081957170567
40
0.14371081957170567
40
0.17028541862678623
40
0.17028541862678623
40
0.19797117157280406
40
0.19797117157280406
40
0.19797117157280406
40
0.19797117157280406
10
-33.909093907434951
20
95.57826102074273
30
0
10
-33.826012873011322
20
95.632474330917887
30
0
10
-33.74488488992624
20
95.685413206094253
30
0
10
-33.643020421904922
20
95.805930087202299
30
0
10
-33.609172992177953
20
95.861389684710872
30
0
10
-33.56373740966707
20
96.005769090320214
30
0
10
-33.556298174036463
20
96.083278985735845
30
0
10
-33.561740652588099
20
96.282338590939275
30
0
10
-33.590590720638652
20
96.412893311599817
30
0
10
-33.671982309119045
20
96.633698726133929
30
0
10
-33.727774670046109
20
96.741049069081626
30
0
10
-33.862090633956328
20
96.894867032142685
30
0
10
-33.919932178244771
20
96.933238157047299
30
0
10
-34.027599554534632
20
96.986516107097145
30
0
10
-34.087487409696202
20
97.001022171758223
30
0
10
-34.209314016536155
20
97.01602046450742
30
0
10
-34.272421087577939
20
97.016019481858365
30
0
10
-34.336707618538526
20
97.016018480843783
30
0
0
LINE
5
131
100
AcDbEntity
8
0
100
AcDbLine
10
-33.909093907434951
20
95.57826102074273
30
0
11
-46.053742449781829
21
87.653448782160282
31
0
0
SPLINE
5
132
100
AcDbEntity
8
0
100
AcDbSpline
70
0
71
3
72
12
73
8
74
0
42
0.000000001
43
0.0000000001
44
0.0000000001
40
0
40
0
40
0
40
0
40
0.050763355607002937
40
0.050763355607002937
40
0.085056140592601831
40
0.085056140592601831
40
0.13821456327234805
40
0.13821456327234805
40
0.13821456327234805
40
0.13821456327234805
10
-47.553161190290567
20
87.611694254127471
30
0
10
-47.40652506776393
20
87.527253311332132
30
0
10
-47.241672267604898
20
87.432322228676497
30
0
10
-46.88117001869918
20
87.367008503892677
30
0
10
-46.732483810258465
20
87.369762813762662
30
0
10
-46.365228580463324
20
87.450193077232655
30
0
10
-46.199596230165945
20
87.558274037514423
30
0
10
-46.053742449781836
20
87.653448782160282
30
0
0
LINE
5
133
100
AcDbEntity
8
0
100
AcDbLine
10
-47.553161190290567
20
87.611694254127471
30
0
11
-59.977668610351962
21
94.766391897793426
31
0
0
ARC
5
134
100
AcDbEntity
8
0
100
AcDbCircle
10
-59.376341128046938
20
95.810628585055809
30
0
40
1.2049999999999932
210
1.9721522628134446e-31
220
3.0708659213316084e-36
230
1
100
AcDbArc
50
90.000892160610675
51
240.06435520182126
0
SPLINE
5
135
100
AcDbEntity
8
0
100
AcDbSpline
70
0
71
3
72
10
73
6
74
0
42
0.000000001
43
0.0000000001
44
0.0000000001
40
0
40
0
40
0
40
0
40
0.29059167419949877
40
0.29059167419949877
40
0.58118334839900154
40
0.58118334839900154
40
0.58118334839900154
40
0.58118334839900154
10
-14.493663841306008
20
-3.6135756922208913
30
0
10
-15.428873445929241
20
-3.865853993175052
30
0
10
-16.41012245864901
20
-4.1305516957201611
30
0
10
-18.803124601077421
20
-4.3788254202601289
30
0
10
-19.817813969662673
20
-4.3212061181446932
30
0
10
-20.784894935767021
20
-4.2662902669677498
30
0
0
LINE
5
136
100
AcDbEntity
8
0
100
AcDbLine
10
-14.493663841306008
20
-3.6135756922208913
30
0
11
-9.534224643753376
21
-2.2757377484498758
31
0
0
ARC
5
137
100
AcDbEntity
8
0
100
AcDbCircle
10
-10.380674715344409
20
0.86209944877664768
30
0
40
3.2499999999992109
210
2.3782102170662824e-47
220
6.4153621809110073e-48
230
1
100
AcDbArc
50
-74.903461718220228
51
39.997230964857941
0
LINE
5
138
100
AcDbEntity
8
0
100
AcDbLine
10
-7.8909293164064014
20
2.9510388563390149
30
-6.7467429113890416e-32
11
-10.626273856531762
21
6.2112155080086033
31
0
0
SPLINE
5
139
100
AcDbEntity
8
0
100
AcDbSpline
70
0
71
3
72
10
73
6
74
0
42
0.000000001
43
0.0000000001
44
0.0000000001
40
0
40
0
40
0
40
0
40
0.27879014335347146
40
0.27879014335347146
40
0.55758028670694437
40
0.55758028670694437
40
0.55758028670694437
40
0.55758028670694437
10
-12.494888628662759
20
12.253889074682036
30
0
10
-12.586059996169034
20
11.329071708998518
30
0
10
-12.693765656510507
20
10.236535008160388
30
0
10
-11.929214988542912
20
7.7641526955440376
30
0
10
-11.223582284112297
20
6.9231298430686694
30
0
10
-10.626273856531762
20
6.2112155080086033
30
0
0
LINE
5
140
100
AcDbEntity
8
0
100
AcDbLine
10
-12.494888628662759
20
12.253889074682036
30
0
11
-7.6820475768304544
21
61.074029703840615
31
0
0
SPLINE
5
141
100
AcDbEntity
8
0
100
AcDbSpline
70
0
71
3
72
14
73
10
74
0
42
0.000000001
43
0.0000000001
44
0.0000000001
40
0
40
0
40
0
40
0
40
0.1867662661534443
40
0.1867662661534443
40
0.36003792577596672
40
0.36003792577596672
40
0.56435296471996765
40
0.56435296471996765
40
0.74141758614454156
40
0.74141758614454156
40
0.74141758614454156
40
0.74141758614454156
10
-3.357210694399821
20
65.689374863237447
30
0
10
-3.971489426000463
20
65.588204722485514
30
0
10
-4.6452013484223933
20
65.477246086753368
30
0
10
-5.971761237061842
20
64.779828911647883
30
0
10
-6.3870559845859347
20
64.353789557492831
30
0
10
-6.9200347548600059
20
63.709958021689602
30
0
10
-7.2125704474101244
20
63.253028196596162
30
0
10
-7.5826588071649343
20
62.082202144977508
30
0
10
-7.6337594489283491
20
61.563851239501361
30
0
10
-7.6820475768304544
20
61.074029703840615
30
0
0
LINE
5
142
100
AcDbEntity
8
0
100
AcDbLine
10
-3.357210694399821
20
65.689374863237447
30
0
11
3.6815712303562802
21
66.848644298130779
31
0
0
SPLINE
5
143
100
AcDbEntity
8
0
100
AcDbSpline
70
0
71
3
72
14
73
10
74
0
42
0.000000001
43
0.0000000001
44
0.0000000001
40
0
40
0
40
0
40
0
40
0.12649974805075787
40
0.12649974805075787
40
0.23610635721138851
40
0.23610635721138851
40
0.32688030267401857
40
0.32688030267401857
40
0.43713209610009734
40
0.43713209610009734
40
0.43713209610009734
40
0.43713209610009734
10
7.6242545577443384
20
64.270123563303116
30
0
10
7.5202604135883435
20
64.678764343821214
30
0
10
7.4082235976064625
20
65.119008477768986
30
0
10
6.9018798490484743
20
65.931501444472957
30
0
10
6.6138566051904686
20
66.19902929362749
30
0
10
6.124399839517416
20
66.54802876943306
30
0
10
5.7582135899929279
20
66.766864103689699
30
0
10
4.6708548352837527
20
67.011576785298757
30
0
10
4.1509508795972749
20
66.925949929494678
30
0
10
3.6815712303562802
20
66.848644298130779
30
0
0
LINE
5
144
100
AcDbEntity
8
0
100
AcDbLine
10
7.6242545577443384
20
64.270123563303116
30
0
11
7.8035671578039256
21
63.565521958667006
31
0
0
ARC
5
145
100
AcDbEntity
8
0
100
AcDbCircle
10
10.953176284655584
20
64.367059448776629
30
0
40
3.24999999999977
210
8.234950540067013e-47
220
-3.2358904854992668e-46
230
1
100
AcDbArc
50
-165.72199995031639
51
13.270436528527172
0
LINE
5
146
100
AcDbEntity
8
0
100
AcDbLine
10
14.116392978528244
20
65.113089037737609
30
6.4085038353710425e-31
11
14.063975749182431
21
65.335341690116621
31
1.5407439555097887e-32
0
SPLINE
5
147
100
AcDbEntity
8
0
100
AcDbSpline
70
0
71
3
72
14
73
10
74
0
42
0.000000001
43
0.0000000001
44
0.0000000001
40
0
40
0
40
0
40
0
40
0.12688460229678758
40
0.12688460229678758
40
0.23686623518829403
40
0.23686623518829403
40
0.32526303340722473
40
0.32526303340722473
40
0.42984817425545119
40
0.42984817425545119
40
0.42984817425545119
40
0.42984817425545119
10
16.354532058565777
20
69.451999654235593
30
0
10
15.953546342062472
20
69.317478145652032
30
0
10
15.521294015467188
20
69.172467406692533
30
0
10
14.745748039989707
20
68.604451582234873
30
0
10
14.499870386817808
20
68.29607195587316
30
0
10
14.19253440266546
20
67.788607290802361
30
0
10
13.99842322773349
20
67.406889780742276
30
0
10
13.835665616318041
20
66.30339233359588
30
0
10
13.955532418387941
20
65.795148860475507
30
0
10
14.063975749182431
20
65.335341690116621
30
0
0
LINE
5
148
100
AcDbEntity
8
0
100
AcDbLine
10
16.354532058565777
20
69.451999654235593
30
0
11
32.582755603075292
21
74.896196350006704
31
0
0
SPLINE
5
149
100
AcDbEntity
8
0
100
AcDbSpline
70
0
71
3
72
16
73
12
74
0
42
0.000000001
43
0.0000000001
44
0.0000000001
40
0
40
0
40
0
40
0
40
0.16376481708329393
40
0.16376481708329393
40
0.27750935440926899
40
0.27750935440926899
40
0.39033497363635555
40
0.39033497363635555
40
0.50645019848336226
40
0.50645019848336226
40
0.64843617286545641
40
0.64843617286545641
40
0.64843617286545641
40
0.64843617286545641
10
35.089430571213789
20
80.703278715886114
30
0
10
35.318046666326708
20
80.207574541007332
30
0
10
35.561714916452551
20
79.679233048632824
30
0
10
35.677030915064989
20
78.57223193477958
30
0
10
35.635116406896429
20
78.110596496119499
30
0
10
35.360194185483294
20
77.16604211781447
30
0
10
35.125504292311696
20
76.680722674514897
30
0
10
34.442910117708607
20
75.823001542364082
30
0
10
34.067854481294404
20
75.55361445742821
30
0
10
33.359571949981948
20
75.156800412888316
30
0
10
32.964506766645492
20
75.024265107355006
30
0
10
32.582755603075292
20
74.896196350006704
30
0
0
LINE
5
150
100
AcDbEntity
8
0
100
AcDbLine
10
35.089430571213789
20
80.703278715886114
30
0
11
28.573791220563947
21
94.831022550047521
31
0
0
SPLINE
5
151
100
AcDbEntity
8
0
100
AcDbSpline
70
0
71
3
72
10
73
6
74
0
42
0.000000001
43
0.0000000001
44
0.0000000001
40
0
40
0
40
0
40
0
40
0.28471545715007635
40
0.28471545715007635
40
0.56943091430015857
40
0.56943091430015857
40
0.56943091430015857
40
0.56943091430015857
10
24.324306482261374
20
99.515838924136645
30
0
10
25.143395108885926
20
99.036472032679626
30
0
10
26.056082705953514
20
98.502326883966433
30
0
10
27.733445252482667
20
96.653129626606102
30
0
10
28.176327728763813
20
95.692835503986359
30
0
10
28.573791220563947
20
94.831022550047521
30
0
0
LINE
5
152
100
AcDbEntity
8
0
100
AcDbLine
10
24.324306482261374
20
99.515838924136645
30
0
11
19.091123754526915
21
102.57852891283613
31
0
0
SPLINE
5
153
100
AcDbEntity
8
0
100
AcDbSpline
70
0
71
3
72
10
73
6
74
0
42
0.000000001
43
0.0000000001
44
0.0000000001
40
0
40
0
40
0
40
0
40
0.28209368837398635
40
0.28209368837398635
40
0.56418737674797725
40
0.56418737674797725
40
0.56418737674797725
40
0.56418737674797725
10
12.868439676896489
20
103.71159019538212
30
0
10
13.795312357977622
20
103.87000182501735
30
0
10
14.855418376647368
20
104.05118433846432
30
0
10
17.351375741973513
20
103.59670639642914
30
0
10
18.279577609113744
20
103.05348161069475
30
0
10
19.091123754526915
20
102.57852891283613
30
0
0
LINE
5
154
100
AcDbEntity
8
0
100
AcDbLine
10
12.868439676896489
20
103.71159019538212
30
0
11
7.9826643735568368
21
102.87656328863271
31
0
0
SPLINE
5
155
100
AcDbEntity
8
0
100
AcDbSpline
70
0
71
3
72
10
73
6
74
0
42
0.000000001
43
0.0000000001
44
0.0000000001
40
0
40
0
40
0
40
0
40
1.7013063330621221
40
1.7013063330621221
40
3.4026126661244556
40
3.4026126661244556
40
3.4026126661244556
40
3.4026126661244556
10
-28.680324425312023
20
99.501861967845031
30
0
10
-23.009883262200109
20
99.58296343577419
30
0
10
-17.164385218218577
20
99.666568654223155
30
0
10
-3.3698417869683301
20
100.93630866894171
30
0
10
2.3926975389401166
20
101.92118314424678
30
0
10
7.9826643735568359
20
102.87656328863271
30
0
0
LINE
5
156
100
AcDbEntity
8
0
100
AcDbLine
10
-28.680324425312023
20
99.501861967845031
30
0
11
-30.294958156857483
21
99.478768673685906
31
0
0
LINE
5
157
100
AcDbEntity
8
0
100
AcDbLine
10
-30.294958156857483
20
99.478768673685906
30
0
11
-67.412733904161882
21
99.277585237908738
31
0
0
SPLINE
5
158
100
AcDbEntity
8
0
100
AcDbSpline
70
0
71
3
72
10
73
6
74
0
42
0.000000001
43
0.0000000001
44
0.0000000001
40
0
40
0
40
0
40
0
40
0.94391233948808106
40
0.94391233948808106
40
1.8878246789761499
40
1.8878246789761499
40
1.8878246789761499
40
1.8878246789761499
10
-87.494586904551312
20
93.856742706960404
30
0
10
-84.767057469955418
20
95.42526285575255
30
0
10
-81.797911569167127
20
97.132729367761073
30
0
10
-73.984105896013517
20
99.241967500356537
30
0
10
-70.559062153224048
20
99.260531707235614
30
0
10
-67.412733904162096
20
99.277585237908909
30
0
0
LINE
5
159
100
AcDbEntity
8
0
100
AcDbLine
10
-87.494586904551312
20
93.856742706960404
30
0
11
-124.39826222102708
21
72.634548891496848
31
0
0
SPLINE
5
160
100
AcDbEntity
8
0
100
AcDbSpline
70
0
71
3
72
14
73
10
74
0
42
0.000000001
43
0.0000000001
44
0.0000000001
40
0
40
0
40
0
40
0
40
0.19080058019641155
40
0.19080058019641155
40
0.3708278777742986
40
0.3708278777742986
40
0.70816011409616708
40
0.70816011409616708
40
1.1371562683413579
40
1.1371562683413579
40
1.1371562683413579
40
1.1371562683413579
10
-126.93163177006916
20
66.839062395266666
30
0
10
-127.07334999398363
20
67.459074012131282
30
0
10
-127.22938778062644
20
68.141733148805073
30
0
10
-127.07553731959011
20
69.686215768574471
30
0
10
-126.82405024075747
20
70.240457135732996
30
0
10
-126.32381836859582
20
71.167416927921636
30
0
10
-125.92107850452372
20
71.572154548800341
30
0
10
-125.20979411487042
20
72.167861305751572
30
0
10
-124.79391548455867
20
72.407020598708101
30
0
10
-124.39826222102708
20
72.634548891496848
30
0
0
LINE
5
161
100
AcDbEntity
8
0
100
AcDbLine
10
-126.93163177006916
20
66.839062395266666
30
0
11
-124.26015142196104
21
55.151441676477404
31
0
0
SPLINE
5
162
100
AcDbEntity
8
0
100
AcDbSpline
70
0
71
3
72
10
73
6
74
0
42
0.000000001
43
0.0000000001
44
0.0000000001
40
0
40
0
40
0
40
0
40
0.29199578893820183
40
0.29199578893820183
40
0.58399157787642919
40
0.58399157787642919
40
0.58399157787642919
40
0.58399157787642919
10
-122.26610686084936
20
49.148991236173771
30
0
10
-122.66010325649393
20
50.039000951335225
30
0
10
-123.06743996375678
20
50.959145477562949
30
0
10
-123.8190449467473
20
53.221618317473116
30
0
10
-124.04326987707149
20
54.2025935071959
30
0
10
-124.26015142196104
20
55.151441676477404
30
0
0
LINE
5
163
100
AcDbEntity
8
0
100
AcDbLine
10
-122.26610686084936
20
49.148991236173771
30
0
11
-113.38335242473821
21
29.083483447458441
31
5.9164567891575885e-30
0
SPLINE
5
164
100
AcDbEntity
8
0
100
AcDbSpline
70
0
71
3
72
10
73
6
74
0
42
0.000000001
43
0.0000000001
44
0.0000000001
40
0
40
0
40
0
40
0
40
0.28302936060250622
40
0.28302936060250622
40
0.56605872120501322
40
0.56605872120501322
40
0.56605872120501322
40
0.56605872120501322
10
-109.06780728470775
20
24.459448938032772
30
0
10
-109.90210906566884
20
24.899906621820982
30
0
10
-110.84753196810121
20
25.399029111198853
30
0
10
-112.56869165357612
20
27.243222955458375
30
0
10
-113.00145462975809
20
28.220803607012272
30
0
10
-113.38335242473821
20
29.083483447458441
30
0
0
LINE
5
165
100
AcDbEntity
8
0
100
AcDbLine
10
-109.06780728470775
20
24.459448938032772
30
0
11
-72.054627519684402
21
4.9188704555577223
31
-7.8886090522101181e-30
0
SPLINE
5
166
100
AcDbEntity
8
0
100
AcDbSpline
70
0
71
3
72
10
73
6
74
0
42
0.000000001
43
0.0000000001
44
0.0000000001
40
0
40
0
40
0
40
0
40
0.29175442083067621
40
0.29175442083067621
40
0.58350884166136885
40
0.58350884166136885
40
0.58350884166136885
40
0.58350884166136885
10
-66.171389066669406
20
2.5965590412625037
30
0
10
-67.109656947229325
20
2.852368142440791
30
0
10
-68.082168906696154
20
3.1175135400301075
30
0
10
-70.30319694503234
20
3.9942277521243943
30
0
10
-71.194606381297547
20
4.4648346051410952
30
0
10
-72.054627519684402
20
4.9188704555577241
30
0
0
LINE
5
167
100
AcDbEntity
8
0
100
AcDbLine
10
-66.171389066669406
20
2.5965590412625037
30
0
11
-49.385361291322837
21
-1.9799790312148562
31
0
0
SPLINE
5
168
100
AcDbEntity
8
0
100
AcDbSpline
70
0
71
3
72
10
73
6
74
0
42
0.000000001
43
0.0000000001
44
0.0000000001
40
0
40
0
40
0
40
0
40
0.29184702280068692
40
0.29184702280068692
40
0.58369404560137816
40
0.58369404560137816
40
0.58369404560137816
40
0.58369404560137816
10
-43.142613796839093
20
-2.9967035367310517
30
0
10
-44.113872527985698
20
-2.9415504504813956
30
0
10
-45.11959617756353
20
-2.8844402681893904
30
0
10
-47.474925111128805
20
-2.5008398346586147
30
0
10
-48.446795607377865
20
-2.2358693254274962
30
0
10
-49.385361291322837
20
-1.9799790312148582
30
0
0
LINE
5
169
100
AcDbEntity
8
0
100
AcDbLine
10
-43.142613796839093
20
-2.9967035367310517
30
0
11
-20.784894935767024
21
-4.2662902669677498
31
0
0
CIRCLE
5
170
100
AcDbEntity
8
0
100
AcDbCircle
10
24.669305284655579
20
95.392139448776646
30
0
40
1.6000000000000014
210
0
220
-0
230
1
0
CIRCLE
5
171
100
AcDbEntity
8
0
100
AcDbCircle
10
-120.33069471534439
20
52.142139448776625
30
0
40
1.6000000000000014
210
0
220
-0
230
1
0
CIRCLE
5
172
100
AcDbEntity
8
0
100
AcDbCircle
10
-111.58069471534439
20
32.642139448776632
30
0
40
1.6000000000000014
210
0
220
-0
230
1
0
CIRCLE
5
173
100
AcDbEntity
8
0
100
AcDbCircle
10
-10.380674715344409
20
0.86209944877664768
30
0
40
1.6000000000000003
210
0
220
-0
230
1
0
CIRCLE
5
174
100
AcDbEntity
8
0
100
AcDbCircle
10
10.953176284655584
20
64.367059448776629
30
0
40
1.5999999999999992
210
0
220
-0
230
1
0
LINE
5
175
100
AcDbEntity
8
0
100
AcDbLine
10
-67.018982715344407
20
92.411244448776628
30
0
11
-72.795304715344258
21
84.519529448776524
31
0
0
ARC
5
176
100
AcDbEntity
8
0
100
AcDbCircle
10
-73.520574715344395
20
85.052499448776615
30
0
40
0.90004088451599107
210
0
220
0
230
1
100
AcDbArc
50
210.24714635031418
51
323.68941996165944
0
LINE
5
177
100
AcDbEntity
8
0
100
AcDbLine
10
-74.298084569267218
20
84.599120996649418
30
0
11
-80.045304715344201
21
94.60565944877672
31
0
0
ARC
5
178
100
AcDbEntity
8
0
100
AcDbCircle
10
-79.205574715344412
20
95.015499448776637
30
2.8395452280019487e-46
40
0.93440638830200218
210
1.6218857506917349e-32
220
-3.3231166343655213e-32
230
1
100
AcDbArc
50
117.72462833333672
51
206.01522821423697
0
ARC
5
179
100
AcDbEntity
8
0
100
AcDbCircle
10
-68.4046796254529
20
55.286285780768964
30
1.0246995020375225e-43
40
42.083914031034475
210
1.7031190821084553e-31
220
1.239239542210076e-31
230
1
100
AcDbArc
50
90.240581292474175
51
105.48469262319135
0
SPLINE
5
180
100
AcDbEntity
8
0
100
AcDbSpline
70
4
71
3
72
8
73
4
74
0
42
0.000000001
43
0.0000000001
44
0.0000000001
40
-1
40
-1
40
-1
40
-1
40
0
40
0
40
0
40
0
41
1
41
1
41
1
41
1
10
-68.581386754054321
20
97.369828820325409
30
0
10
-67.767653715344409
20
97.35055944877665
30
0
10
-67.56174771534441
20
96.971896448776647
30
0
10
-67.676419430408401
20
96.064972064069735
30
0
0
ARC
5
181
100
AcDbEntity
8
0
100
AcDbCircle
10
-64.3905747153444
20
95.85449944877665
30
0
40
3.2925786571169957
210
-3.4990497678005042e-49
220
-5.4626271314500864e-48
230
1
100
AcDbArc
50
176.33496367061622
51
212.24192960768363
0
SPLINE
5
182
100
AcDbEntity
8
0
100
AcDbSpline
70
4
71
3
72
8
73
4
74
0
42
0.000000001
43
0.0000000001
44
0.0000000001
40
-1
40
-1
40
-1
40
-1
40
0
40
0
40
0
40
0
41
1
41
1
41
1
41
1
10
-67.175447540742866
20
94.097923928151502
30
0
10
-66.684340715344405
20
93.439245448776646
30
0
10
-66.576002715344416
20
93.121455448776643
30
0
10
-67.018982715344407
20
92.411244448776628
30
0
0
LWPOLYLINE
5
183
100
AcDbEntity
8
0
100
AcDbPolyline
90
6
70
1
43
0.0
10
-31.455575355805752
20
69.266283650746743
42
0.51109473901341429
10
-30.455684715344077
20
70.016049448776641
10
-30.435344392984973
20
73.985757553873697
42
0.43380512188781045
10
-31.205694715344411
20
74.766049448776599
10
-48.456106171050948
20
74.766613722467881
42
0.77950372031004234
10
-48.491564715344481
20
73.461309448776447
0
LINE
5
184
100
AcDbEntity
8
0
100
AcDbLine
10
-62.682619715344416
20
91.652296448776625
30
0
11
-62.684504837380771
21
79.2793967468087
31
0
0
ARC
5
185
100
AcDbEntity
8
0
100
AcDbCircle
10
-63.455574715344397
20
79.266499448776614
30
-3.1748168332359137e-45
40
0.77117773373238874
210
1.9718764407842906e-31
220
3.2982585451782731e-33
230
1
100
AcDbArc
50
-107.25434301293828
51
0.95826832641620152
0
LINE
5
186
100
AcDbEntity
8
0
100
AcDbLine
10
-63.684316800293402
20
78.530026668846617
30
4.7534190472375627e-32
11
-71.563966665912929
21
82.183730529785237
31
0
0
ARC
5
187
100
AcDbEntity
8
0
100
AcDbCircle
10
-71.139574715344395
20
82.949499448776635
30
0
40
0.87550589089605324
210
0
220
0
230
1
100
AcDbArc
50
158.80012729931047
51
241.00461866280537
0
LINE
5
188
100
AcDbEntity
8
0
100
AcDbLine
10
-71.955830398958412
20
83.266102076626609
30
0
11
-65.770612715344413
21
91.592649448776626
31
0
0
SPLINE
5
189
100
AcDbEntity
8
0
100
AcDbSpline
70
4
71
3
72
8
73
4
74
0
42
0.000000001
43
0.0000000001
44
0.0000000001
40
0
40
0
40
0
40
0
40
0.99999387042559162
40
0.99999387042559162
40
0.99999387042559162
40
0.99999387042559162
41
1
41
1
41
1
41
1
10
-65.770612715344413
20
91.592649448776626
30
0
10
-65.314681510025792
20
92.283597213534961
30
0
10
-65.080697583797416
20
92.642135053393432
30
0
10
-64.344774687359077
20
92.54567874910768
30
0
0
ARC
5
190
100
AcDbEntity
8
0
100
AcDbCircle
10
-64.474574715344403
20
96.18649944877663
30
0
40
3.6431337354539939
210
-1.9709001380718898e-31
220
-7.0265172108386786e-33
230
1
100
AcDbArc
50
272.04180484355601
51
283.32868739193032
0
SPLINE
5
191
100
AcDbEntity
8
0
100
AcDbSpline
70
4
71
3
72
8
73
4
74
0
42
0.000000001
43
0.0000000001
44
0.0000000001
40
7.9526889162786481e-07
40
7.9526889162786481e-07
40
7.9526889162786481e-07
40
7.9526889162786481e-07
40
1
40
1
40
1
40
1
41
1
41
1
41
1
41
1
10
-63.634698022154943
20
92.641500068741493
30
0
10
-62.925006274247124
20
92.901354740242695
30
0
10
-62.647680743130316
20
92.455886809705703
30
0
10
-62.682619715344416
20
91.652296448776625
30
0
0
LINE
5
192
100
AcDbEntity
8
0
100
AcDbLine
10
-57.752459111877897
20
77.953773631556743
30
0
11
-47.449851286661385
21
84.676737042638592
31
0
0
SPLINE
5
193
100
AcDbEntity
8
0
100
AcDbSpline
70
0
71
3
72
12
73
8
74
0
42
0.000000001
43
0.0000000001
44
0.0000000001
40
0
40
0
40
0
40
0
40
0.050762985813755372
40
0.050762985813755372
40
0.085055679128731604
40
0.085055679128731604
40
0.13821527215607166
40
0.13821527215607166
40
0.13821527215607166
40
0.13821527215607166
10
-45.950432756256177
20
84.718499114874959
30
0
10
-46.097067810590076
20
84.802939442547626
30
0
10
-46.261919191775434
20
84.897869708082126
30
0
10
-46.622418743811878
20
84.963183434131025
30
0
10
-46.771104222161604
20
84.960429277985682
30
0
10
-47.138362951110494
20
84.879998655466537
30
0
10
-47.303996886262397
20
84.771914284543072
30
0
10
-47.449851286661385
20
84.676737042638592
30
0
0
LINE
5
194
100
AcDbEntity
8
0
100
AcDbLine
10
-45.950432756256177
20
84.718499114874959
30
0
11
-34.222208115664621
21
77.964758434183182
31
0
0
SPLINE
5
195
100
AcDbEntity
8
0
100
AcDbSpline
70
0
71
3
72
22
73
18
74
0
42
0.000000001
43
0.0000000001
44
0.0000000001
40
0
40
0
40
0
40
0
40
0.029144309829701894
40
0.029144309829701894
40
0.046728624174041694
40
0.046728624174041694
40
0.06435791111343131
40
0.06435791111343131
40
0.093223556132748173
40
0.093223556132748173
40
0.12329138755207207
40
0.12329138755207207
40
0.14618627919606689
40
0.14618627919606689
40
0.17310732942575988
40
0.17310732942575988
40
0.20849004730612744
40
0.20849004730612744
40
0.20849004730612744
40
0.20849004730612744
10
-34.609634296672375
20
76.515654933990817
30
0
10
-34.512486597252014
20
76.515653408458363
30
0
10
-34.418121177201243
20
76.515651926616655
30
0
10
-34.271587172214332
20
76.558098272921214
30
0
10
-34.214875716405892
20
76.584423311963192
30
0
10
-34.102803939002989
20
76.674811001343556
30
0
10
-34.05653823050659
20
76.731785007702896
30
0
10
-33.956261139501983
20
76.892462751933252
30
0
10
-33.911017960501226
20
77.011094426387317
30
0
10
-33.853763705158521
20
77.243629170875479
30
0
10
-33.838556892362192
20
77.376048744851659
30
0
10
-33.864889468842399
20
77.590099196387001
30
0
10
-33.890927482396826
20
77.655669411493477
30
0
10
-33.949519125347464
20
77.759989025214182
30
0
10
-33.989370991124879
20
77.803703205427652
30
0
10
-34.089942330424336
20
77.888592702214737
30
0
10
-34.155237745977217
20
77.926193303993443
30
0
10
-34.222208115664621
20
77.964758434183182
30
0
0
LINE
5
196
100
AcDbEntity
8
0
100
AcDbLine
10
-34.609634296672375
20
76.515654933990817
30
0
11
-57.32486064931598
21
76.516011636366073
31
0
0
SPLINE
5
197
100
AcDbEntity
8
0
100
AcDbSpline
70
0
71
3
72
22
73
18
74
0
42
0.000000001
43
0.0000000001
44
0.0000000001
40
0
40
0
40
0
40
0
40
0.029761833466133522
40
0.029761833466133522
40
0.047597364144617516
40
0.047597364144617516
40
0.065679525897217247
40
0.065679525897217247
40
0.095020187589455005
40
0.095020187589455005
40
0.12193511077027969
40
0.12193511077027969
40
0.14370612230911664
40
0.14370612230911664
40
0.1702755568704471
40
0.1702755568704471
40
0.19795006249539593
40
0.19795006249539593
40
0.19795006249539593
40
0.19795006249539593
10
-57.752459111877897
20
77.953773631556757
30
0
10
-57.835540914667725
20
77.899558627961682
30
0
10
-57.916669970689455
20
77.846617888639869
30
0
10
-58.018534743410868
20
77.726096564815649
30
0
10
-58.052382315539461
20
77.670634904826429
30
0
10
-58.097817316402271
20
77.526248923361962
30
0
10
-58.105255634329033
20
77.448735529764491
30
0
10
-58.099809887461817
20
77.24966901585799
30
0
10
-58.070957162295393
20
77.119110079178824
30
0
10
-57.989561359290917
20
76.898309218245771
30
0
10
-57.933770292375748
20
76.790967686460974
30
0
10
-57.799459779950588
20
76.637163971550663
30
0
10
-57.741618293609839
20
76.59879283370114
30
0
10
-57.633943252795696
20
76.545514892833793
30
0
10
-57.57405273262053
20
76.531009732209739
30
0
10
-57.452233133451458
20
76.516013636525201
30
0
10
-57.389136365366049
20
76.51601264570229
30
0
10
-57.32486064931598
20
76.516011636366073
30
0
0
CIRCLE
5
198
100
AcDbEntity
8
0
100
AcDbCircle
10
-30.130694715344404
20
32.680789448776636
30
0
40
3.4419231633043208
210
-2.4993010659029294e-41
220
-9.8607613152626498e-32
230
1
0
CIRCLE
5
199
100
AcDbEntity
8
0
100
AcDbCircle
10
-64.330694715344407
20
95.892139448776632
30
0
40
1.6000000000000014
210
0
220
-0
230
1
0
LINE
5
200
100
AcDbEntity
8
0
100
AcDbLine
10
-30.455986213287716
20
94.19108024497946
30
0
11
-30.455715404471135
21
79.26461853037847
31
0
0
SPLINE
5
201
100
AcDbEntity
8
0
100
AcDbSpline
70
0
71
3
72
18
73
14
74
0
42
0.000000001
43
0.0000000001
44
0.0000000001
40
0
40
0
40
0
40
0
40
0.036518835999669964
40
0.036518835999669964
40
0.052628824236100831
40
0.052628824236100831
40
0.06843575333876091
40
0.06843575333876091
40
0.083880973296333858
40
0.083880973296333858
40
0.097040594132129607
40
0.097040594132129607
40
0.11425699188372135
40
0.11425699188372135
40
0.11425699188372135
40
0.11425699188372135
10
-31.754325291254816
20
78.513877322006579
30
0
10
-31.64883619491464
20
78.45313104342182
30
0
10
-31.540207759935544
20
78.390576965299971
30
0
10
-31.342231729667006
20
78.359353254808738
30
0
10
-31.253783207154203
20
78.353798006538867
30
0
10
-31.026895526847266
20
78.405211536543987
30
0
10
-30.920830519847101
20
78.454168903478887
30
0
10
-30.74534725561643
20
78.566346729103486
30
0
10
-30.653173529085905
20
78.643294342457381
30
0
10
-30.523413357199761
20
78.82759889345715
30
0
10
-30.493192307550157
20
78.909691229137366
30
0
10
-30.45571203880851
20
79.079109672380184
30
0
10
-30.45571373248842
20
79.172462055074917
30
0
10
-30.455715404471135
20
79.26461853037847
30
0
0
LINE
5
202
100
AcDbEntity
8
0
100
AcDbLine
10
-31.754325291254816
20
78.513877322006579
30
0
11
-43.86622677503118
21
85.488559703890559
31
0
0
SPLINE
5
203
100
AcDbEntity
8
0
100
AcDbSpline
70
0
71
3
72
18
73
14
74
0
42
0.000000001
43
0.0000000001
44
0.0000000001
40
0
40
0
40
0
40
0
40
0.037472798675629006
40
0.037472798675629006
40
0.053270702635848141
40
0.053270702635848141
40
0.068454157222234094
40
0.068454157222234094
40
0.081088363215865086
40
0.081088363215865086
40
0.091295584237203839
40
0.091295584237203839
40
0.10284753041303604
40
0.10284753041303604
40
0.10284753041303604
40
0.10284753041303604
10
-43.907988847267504
20
86.987978234295781
30
0
10
-44.012596235555399
20
86.919716716831516
30
0
10
-44.12109784209467
20
86.84891402850424
30
0
10
-44.240554966073702
20
86.680897961125396
30
0
10
-44.287068152342854
20
86.601714075887287
30
0
10
-44.344476886290252
20
86.36848907398894
30
0
10
-44.348782739967156
20
86.248504668438159
30
0
10
-44.326723699086592
20
86.050274287395766
30
0
10
-44.301842331061906
20
85.935734044384304
30
0
10
-44.19350293430427
20
85.737779113746967
30
0
10
-44.13416975826695
20
85.674514798954689
30
0
10
-44.008882668106324
20
85.570708617125689
30
0
10
-43.937112827831655
20
85.52937969439752
30
0
10
-43.86622677503118
20
85.488559703890559
30
0
0
LINE
5
204
100
AcDbEntity
8
0
100
AcDbLine
10
-43.907988847267504
20
86.987978234295781
30
0
11
-31.775007330155631
21
94.905351407253676
31
0
0
SPLINE
5
205
100
AcDbEntity
8
0
100
AcDbSpline
70
0
71
3
72
18
73
14
74
0
42
0.000000001
43
0.0000000001
44
0.0000000001
40
0
40
0
40
0
40
0
40
0.035554112933407364
40
0.035554112933407364
40
0.052227686476538818
40
0.052227686476538818
40
0.068934667067696548
40
0.068934667067696548
40
0.087062624397218208
40
0.087062624397218208
40
0.10241656979029169
40
0.10241656979029169
40
0.1272162460932304
40
0.1272162460932304
40
0.1272162460932304
40
0.1272162460932304
10
-30.455986213287719
20
94.19108024497946
30
0
10
-30.455988363466247
20
94.309593954737991
30
0
10
-30.455990561497529
20
94.43074521621206
30
0
10
-30.524343552560641
20
94.613955169894297
30
0
10
-30.562458321301381
20
94.690439751539401
30
0
10
-30.712591377389469
20
94.855032016923275
30
0
10
-30.804502818915033
20
94.920626616335596
30
0
10
-30.992368485183427
20
95.021002362317958
30
0
10
-31.109969940160628
20
95.064452723099691
30
0
10
-31.33748294322799
20
95.087836474448352
30
0
10
-31.422183383488299
20
95.07403093775963
30
0
10
-31.598337974067256
20
95.02063693854744
30
0
10
-31.687299019717592
20
94.96258543692133
30
0
10
-31.775007330155628
20
94.905351407253676
30
0
0
LINE
5
206
100
AcDbEntity
8
0
100
AcDbLine
10
-61.20599577123965
20
79.341067054557996
30
0
11
-61.205763654831678
21
92.004802100106559
31
0
0
SPLINE
5
207
100
AcDbEntity
8
0
100
AcDbSpline
70
0
71
3
72
18
73
14
74
0
42
0.000000001
43
0.0000000001
44
0.0000000001
40
0
40
0
40
0
40
0
40
0.03651948475827313
40
0.03651948475827313
40
0.052628972522198593
40
0.052628972522198593
40
0.068435083039257716
40
0.068435083039257716
40
0.083878293314001373
40
0.083878293314001373
40
0.097035863184229479
40
0.097035863184229479
40
0.11424796204801277
40
0.11424796204801277
40
0.11424796204801277
40
0.11424796204801277
10
-59.907140077713748
20
92.755519626845796
30
0
10
-60.012631048072002
20
92.816266984590655
30
0
10
-60.121261946566364
20
92.878822481336698
30
0
10
-60.319240929929236
20
92.910045458829487
30
0
10
-60.407691597591871
20
92.915601160084549
30
0
10
-60.634585616465266
20
92.864185241056688
30
0
10
-60.740652716267306
20
92.815226649653766
30
0
10
-60.916132043082612
20
92.70304938211342
30
0
10
-61.008303493241144
20
92.626103788222679
30
0
10
-61.138060157027219
20
92.441800870566837
30
0
10
-61.168280921149901
20
92.359709263686923
30
0
10
-61.205760254845089
20
92.190297514656621
30
0
10
-61.205761965797485
20
92.096951903961411
30
0
10
-61.205763654831678
20
92.004802100106559
30
0
0
LINE
5
208
100
AcDbEntity
8
0
100
AcDbLine
10
-59.907140077713748
20
92.755519626845796
30
0
11
-49.63739845115613
21
86.841651677606265
31
0
0
SPLINE
5
209
100
AcDbEntity
8
0
100
AcDbSpline
70
0
71
3
72
18
73
14
74
0
42
0.000000001
43
0.0000000001
44
0.0000000001
40
0
40
0
40
0
40
0
40
0.037472610777468031
40
0.037472610777468031
40
0.053270602838369693
40
0.053270602838369693
40
0.068454229272672154
40
0.068454229272672154
40
0.08108905585426994
40
0.08108905585426994
40
0.091296972608408064
40
0.091296972608408064
40
0.10285016716888976
40
0.10285016716888976
40
0.10285016716888976
40
0.10285016716888976
10
-49.595643923123333
20
85.342232937097563
30
0
10
-49.491036372467676
20
85.410493059635755
30
0
10
-49.382534752027894
20
85.481294200283742
30
0
10
-49.263076254499111
20
85.649308033579473
30
0
10
-49.21656260101485
20
85.728490901173956
30
0
10
-49.159151592289561
20
85.961713834884449
30
0
10
-49.154844532838993
20
86.081697616028492
30
0
10
-49.176901312904874
20
86.279930344737181
30
0
10
-49.201782010844752
20
86.394471118973343
30
0
10
-49.310118808537922
20
86.592427366011606
30
0
10
-49.369451459925784
20
86.655692243176347
30
0
10
-49.494738793376165
20
86.759500596452227
30
0
10
-49.566510533069717
20
86.800830612967644
30
0
10
-49.63739845115613
20
86.841651677606265
30
0
0
LINE
5
210
100
AcDbEntity
8
0
100
AcDbLine
10
-49.595643923123333
20
85.342232937097563
30
0
11
-59.88699127400713
21
78.626765202201184
31
0
0
SPLINE
5
211
100
AcDbEntity
8
0
100
AcDbSpline
70
0
71
3
72
18
73
14
74
0
42
0.000000001
43
0.0000000001
44
0.0000000001
40
0
40
0
40
0
40
0
40
0.035553666929150969
40
0.035553666929150969
40
0.052227659970085334
40
0.052227659970085334
40
0.068935296521735662
40
0.068935296521735662
40
0.087064708539730015
40
0.087064708539730015
40
0.10242017619955522
40
0.10242017619955522
40
0.12722541235456669
40
0.12722541235456669
40
0.12722541235456669
40
0.12722541235456669
10
-61.205995771239657
20
79.341067054557996
30
0
10
-61.205997943476476
20
79.222554831480736
30
0
10
-61.206000164049435
20
79.101405500169292
30
0
10
-61.137655216297347
20
78.918194328639999
30
0
10
-61.099543563873134
20
78.841709782841789
30
0
10
-60.94942058918113
20
78.67711563431061
30
0
10
-60.857513255467509
20
78.611518612363213
30
0
10
-60.669650437265275
20
78.511134399639829
30
0
10
-60.552047807376574
20
78.467678445985811
30
0
10
-60.324530458099098
20
78.444284786895594
30
0
10
-60.239830246294659
20
78.458087904694267
30
0
10
-60.063671145195045
20
78.511475344234597
30
0
10
-59.974704781545796
20
78.569529039655379
30
0
10
-59.88699127400713
20
78.626765202201184
30
0
0
ENDSEC
0
SECTION
2
OBJECTS
0
DICTIONARY
5
C
100
AcDbDictionary
3
ACAD_GROUP
350
D
3
ACAD_MLINESTYLE
350
17
0
DICTIONARY
5
D
100
AcDbDictionary
0
DICTIONARY
5
1A
330
C
100
AcDbDictionary
0
DICTIONARY
5
17
100
AcDbDictionary
0
ENDSEC
0
EOF
